<?xml version="1.0" standalone="no"?>
<!DOCTYPE svg PUBLIC "-//W3C//DTD SVG 20010904//EN"
 "http://www.w3.org/TR/2001/REC-SVG-20010904/DTD/svg10.dtd">
<svg version="1.0" xmlns="http://www.w3.org/2000/svg"
 width="1636.000000pt" height="1636.000000pt" viewBox="0 0 1636.000000 1636.000000"
 preserveAspectRatio="xMidYMid meet">
<metadata>
Created by potrace 1.14, written by Peter Selinger 2001-2017
</metadata>
<g transform="translate(0.000000,1636.000000) scale(0.100000,-0.100000)"
fill="#000000" stroke="none">
<path d="M7937 16204 c-2 -2 -46 -6 -98 -9 -125 -7 -204 -13 -259 -20 -25 -2
-70 -7 -100 -10 -30 -3 -71 -8 -90 -10 -19 -2 -57 -7 -85 -10 -27 -3 -60 -7
-71 -9 -27 -5 -77 -13 -134 -21 -25 -3 -67 -10 -95 -16 -27 -5 -63 -11 -80
-14 -41 -6 -66 -11 -240 -46 -185 -38 -180 -37 -180 -39 0 -1 -9 -3 -21 -5
-217 -41 -933 -267 -1111 -350 -17 -8 -34 -15 -38 -15 -6 0 -172 -69 -242
-101 -24 -10 -47 -19 -53 -19 -5 0 -10 -4 -10 -9 0 -7 -14 -13 -60 -26 -14 -4
-349 -172 -430 -216 -191 -103 -317 -176 -341 -196 -9 -7 -19 -10 -22 -6 -4 3
-7 1 -7 -5 0 -7 -7 -12 -15 -12 -8 0 -15 -4 -15 -10 0 -5 -4 -10 -10 -10 -12
0 -204 -122 -208 -132 -2 -5 -8 -8 -13 -8 -11 0 -72 -42 -77 -52 -2 -5 -8 -8
-13 -8 -6 0 -44 -25 -84 -55 -41 -30 -77 -55 -81 -55 -3 0 -11 -6 -18 -12 -8
-7 -24 -20 -36 -28 -12 -8 -40 -28 -61 -45 -21 -16 -59 -46 -85 -65 -26 -19
-57 -43 -68 -52 -12 -10 -64 -52 -116 -93 -52 -42 -111 -91 -131 -108 -20 -18
-60 -52 -88 -77 -29 -25 -72 -64 -97 -87 -24 -22 -44 -40 -44 -38 0 4 -84 -77
-213 -203 -59 -58 -107 -110 -107 -114 0 -4 -7 -8 -15 -8 -8 0 -15 -3 -15 -7
0 -5 -35 -45 -78 -90 -42 -45 -97 -105 -122 -133 -25 -28 -58 -67 -75 -85 -16
-18 -46 -52 -66 -76 -91 -110 -107 -129 -120 -143 -15 -17 -18 -20 -69 -86
-19 -25 -38 -46 -42 -48 -5 -2 -8 -9 -8 -16 0 -6 -9 -18 -20 -26 -11 -8 -20
-19 -20 -25 0 -5 -15 -27 -33 -47 -17 -21 -59 -76 -92 -124 -33 -47 -75 -105
-92 -129 -18 -24 -33 -48 -33 -54 0 -5 -3 -11 -7 -13 -12 -5 -53 -66 -53 -78
0 -5 -4 -10 -8 -10 -5 0 -14 -11 -20 -25 -7 -14 -16 -31 -22 -38 -21 -25 -60
-88 -60 -97 0 -6 -4 -10 -10 -10 -5 0 -10 -5 -10 -10 0 -6 -15 -35 -34 -64
-36 -57 -171 -292 -196 -341 -8 -16 -17 -32 -20 -35 -10 -10 -80 -156 -80
-167 0 -6 -4 -13 -9 -15 -19 -6 -199 -406 -306 -678 -88 -224 -225 -625 -241
-706 -2 -12 -13 -51 -23 -85 -11 -35 -22 -75 -25 -89 -3 -14 -17 -70 -31 -125
-31 -119 -34 -131 -41 -169 -2 -16 -6 -32 -8 -35 -2 -3 -7 -23 -10 -43 -3 -21
-10 -57 -15 -80 -10 -42 -15 -70 -26 -133 -3 -16 -10 -52 -15 -80 -5 -27 -12
-66 -14 -85 -3 -19 -8 -46 -10 -60 -5 -27 -17 -113 -21 -145 -2 -11 -5 -41 -9
-65 -3 -25 -8 -65 -11 -90 -3 -25 -7 -63 -10 -85 -10 -92 -18 -186 -32 -375
-15 -220 -8 -918 11 -1100 3 -19 7 -71 10 -115 3 -44 8 -96 11 -115 2 -19 6
-57 10 -85 3 -27 8 -68 11 -90 3 -22 7 -53 9 -70 10 -83 65 -409 82 -480 3
-16 8 -37 9 -45 2 -8 5 -26 7 -40 6 -30 39 -172 66 -285 44 -179 114 -424 130
-454 7 -12 10 -21 7 -21 -4 0 63 -208 81 -250 3 -8 7 -19 8 -25 7 -28 48 -133
61 -157 8 -16 13 -28 10 -28 -4 0 5 -25 44 -115 5 -11 32 -76 61 -145 28 -69
67 -155 85 -192 18 -38 31 -68 30 -68 -4 0 178 -363 216 -430 14 -25 40 -72
58 -105 48 -87 193 -329 200 -335 4 -3 20 -27 35 -55 16 -27 33 -52 37 -53 4
-2 8 -8 8 -14 0 -5 27 -47 60 -94 33 -46 60 -88 60 -92 0 -4 14 -22 30 -41 17
-18 30 -37 30 -42 0 -4 6 -14 13 -21 26 -27 167 -220 167 -229 0 -5 4 -9 8 -9
5 0 22 -19 39 -42 17 -24 40 -52 50 -63 10 -11 29 -35 42 -54 13 -18 36 -46
50 -61 14 -16 44 -49 66 -75 116 -138 181 -209 361 -396 73 -76 324 -319 329
-319 2 0 19 -15 37 -32 58 -55 111 -101 163 -143 28 -22 52 -43 55 -47 3 -3
32 -28 65 -55 33 -26 69 -56 80 -65 11 -9 67 -53 125 -97 58 -44 110 -84 115
-88 82 -65 479 -333 493 -333 6 0 12 -4 14 -8 4 -10 125 -84 134 -82 4 1 10
-2 13 -7 5 -9 105 -70 141 -86 8 -4 31 -17 50 -29 89 -54 409 -217 595 -303
150 -69 592 -248 640 -260 6 -1 17 -5 25 -8 58 -23 392 -129 460 -147 25 -6
52 -14 60 -17 8 -3 20 -7 25 -8 6 -2 39 -10 75 -20 36 -9 83 -20 105 -26 22
-5 49 -11 60 -14 11 -3 29 -7 41 -9 11 -2 49 -11 85 -20 35 -8 75 -18 89 -21
14 -2 59 -12 100 -20 41 -9 88 -18 104 -20 15 -2 35 -7 45 -9 9 -3 39 -8 66
-12 28 -3 52 -8 55 -9 3 -2 33 -6 65 -10 33 -3 67 -8 75 -10 8 -2 40 -7 70
-10 30 -3 62 -8 70 -10 8 -2 44 -7 80 -10 36 -4 76 -8 90 -10 14 -2 61 -7 105
-10 44 -4 94 -8 110 -10 181 -20 885 -28 1115 -11 210 15 306 23 370 31 19 2
58 7 85 10 28 3 62 8 75 9 34 4 117 15 230 32 29 4 258 45 325 58 65 13 180
37 240 52 39 9 78 18 88 20 16 4 26 6 75 18 63 16 190 51 262 72 47 14 92 27
100 29 8 2 16 4 18 5 1 2 5 3 10 4 85 19 601 205 737 266 11 5 40 18 65 28
162 70 214 94 375 173 174 86 285 144 390 204 28 15 63 35 78 44 36 20 43 25
145 86 46 28 92 54 103 60 10 5 19 13 19 17 0 5 4 8 10 8 10 0 207 127 228
146 6 7 21 16 32 19 11 3 20 11 20 16 0 5 5 9 10 9 6 0 20 9 32 20 12 11 34
26 50 32 15 7 28 16 28 19 0 3 28 26 63 50 34 24 68 49 75 56 7 7 16 13 20 13
4 0 24 15 44 33 21 17 67 54 103 82 36 27 65 53 65 57 0 5 6 8 14 8 8 0 16 3
18 8 2 4 30 29 63 56 33 28 67 57 76 65 8 9 32 29 53 46 20 16 56 48 80 70 24
22 96 90 161 150 65 61 123 115 129 121 6 7 42 44 80 83 38 39 73 71 79 71 6
0 8 2 5 6 -3 3 15 27 41 53 46 48 163 175 201 220 11 13 20 29 20 34 0 6 3 7
7 4 3 -4 20 12 37 35 16 22 39 51 51 63 11 12 34 39 50 60 17 21 39 46 49 56
11 11 16 19 12 19 -4 0 4 11 18 24 15 13 26 28 26 34 0 6 3 12 8 14 4 1 48 57
97 123 50 66 93 122 98 123 4 2 7 8 7 13 0 9 47 78 80 116 5 7 10 15 10 19 0
3 14 23 30 44 17 21 30 42 30 48 0 6 4 12 8 14 10 4 163 244 228 358 27 47 51
87 54 90 3 3 13 21 24 40 60 113 109 205 150 283 26 48 43 87 39 87 -4 0 -3 4
2 8 15 10 121 231 182 377 14 33 31 74 38 90 114 253 292 785 379 1130 30 119
84 361 92 413 3 20 8 40 9 43 2 3 7 28 11 55 3 27 8 51 9 54 2 3 6 26 9 50 4
25 9 56 11 70 13 63 15 77 20 124 3 28 8 62 10 76 8 53 16 110 21 156 2 27 7
66 9 86 3 20 7 69 11 110 3 40 7 87 9 103 27 230 27 995 0 1270 -2 22 -7 74
-10 115 -3 41 -8 89 -10 105 -2 17 -7 55 -10 85 -6 56 -8 71 -20 148 -4 23 -8
52 -9 65 -5 39 -18 131 -22 152 -2 11 -13 72 -24 135 -11 63 -24 133 -30 155
-5 22 -23 105 -41 185 -17 80 -47 201 -65 268 -19 68 -36 133 -38 145 -2 12
-9 36 -16 52 -7 17 -14 39 -16 50 -11 61 -132 411 -234 680 -4 11 -7 22 -7 25
1 3 -6 19 -16 35 -9 17 -28 59 -43 95 -14 36 -35 84 -45 108 -10 23 -28 63
-40 90 -49 113 -254 510 -338 656 -50 88 -91 163 -91 167 0 4 -3 9 -8 11 -4 2
-41 57 -82 123 -40 66 -78 122 -82 123 -4 2 -8 8 -8 13 0 6 -18 34 -40 64 -22
30 -40 59 -40 65 0 5 -4 10 -10 10 -5 0 -10 7 -10 15 0 8 -4 15 -10 15 -5 0
-10 6 -10 14 0 8 -4 16 -8 18 -5 2 -28 32 -53 68 -24 36 -52 72 -61 81 -10 9
-18 21 -18 27 0 6 -3 12 -7 14 -5 2 -44 50 -87 108 -44 58 -82 107 -85 110 -4
3 -38 43 -76 90 -88 107 -105 128 -130 154 -11 12 -49 55 -85 96 -66 76 -265
283 -355 370 -120 117 -203 195 -249 234 -27 22 -66 58 -88 79 -22 20 -44 37
-48 37 -5 0 -13 6 -17 13 -7 11 -92 84 -147 127 -10 8 -27 23 -38 33 -10 9
-20 17 -23 17 -3 0 -14 8 -24 18 -22 20 -31 27 -86 67 -22 17 -46 35 -55 42
-118 94 -571 403 -590 403 -6 0 -10 5 -10 10 0 6 -4 10 -9 10 -8 0 -125 68
-191 110 -8 6 -26 16 -40 22 -14 7 -27 15 -30 18 -5 5 -71 41 -145 79 -16 9
-32 19 -35 22 -9 9 -105 53 -112 51 -5 -1 -8 2 -8 6 0 5 -16 14 -35 22 -19 8
-35 17 -35 22 0 4 -3 7 -7 6 -5 -2 -37 11 -73 29 -156 75 -285 136 -295 137
-5 1 -30 12 -55 23 -66 31 -334 138 -410 163 -36 12 -78 28 -95 35 -50 21
-351 117 -406 130 -9 2 -37 10 -62 19 -25 8 -56 18 -69 20 -13 3 -32 7 -43 10
-47 13 -182 47 -200 51 -11 3 -29 7 -40 10 -73 18 -216 48 -330 70 -49 9 -99
19 -110 21 -93 18 -240 40 -460 69 -16 2 -61 7 -100 10 -38 4 -80 8 -92 10
-13 2 -67 7 -120 10 -54 4 -120 9 -148 12 -59 5 -872 12 -878 7z"/>
</g>
</svg>
